<?xml version="1.0" standalone="no"?>
<!DOCTYPE svg PUBLIC "-//W3C//DTD SVG 1.1//EN" "http://www.w3.org/Graphics/SVG/1.1/DTD/svg11.dtd" >
<svg xmlns="http://www.w3.org/2000/svg">
<metadata>
Created by FontForge 20120731 at Tue Feb 14 10:56:58 2017
 By admin
</metadata>
<defs>
<font id="iconfont" horiz-adv-x="1024" >
  <font-face 
    font-family="iconfont"
    font-weight="500"
    font-stretch="normal"
    units-per-em="1024"
    panose-1="2 0 6 3 0 0 0 0 0 0"
    ascent="896"
    descent="-128"
    x-height="792"
    bbox="0 -203 1024 896"
    underline-thickness="0"
    underline-position="0"
    unicode-range="U+0078-E6A8"
  />
<missing-glyph 
 />
    <glyph glyph-name=".notdef" 
 />
    <glyph glyph-name=".notdef" 
 />
    <glyph glyph-name=".null" horiz-adv-x="0" 
 />
    <glyph glyph-name="nonmarkingreturn" horiz-adv-x="341" 
 />
    <glyph glyph-name="x" unicode="x" horiz-adv-x="1001" 
d="M281 543q-27 -1 -53 -1h-83q-18 0 -36.5 -6t-32.5 -18.5t-23 -32t-9 -45.5v-76h912v41q0 16 -0.5 30t-0.5 18q0 13 -5 29t-17 29.5t-31.5 22.5t-49.5 9h-133v-97h-438v97zM955 310v-52q0 -23 0.5 -52t0.5 -58t-10.5 -47.5t-26 -30t-33 -16t-31.5 -4.5q-14 -1 -29.5 -0.5
t-29.5 0.5h-32l-45 128h-439l-44 -128h-29h-34q-20 0 -45 1q-25 0 -41 9.5t-25.5 23t-13.5 29.5t-4 30v167h911zM163 247q-12 0 -21 -8.5t-9 -21.5t9 -21.5t21 -8.5q13 0 22 8.5t9 21.5t-9 21.5t-22 8.5zM316 123q-8 -26 -14 -48q-5 -19 -10.5 -37t-7.5 -25t-3 -15t1 -14.5
t9.5 -10.5t21.5 -4h37h67h81h80h64h36q23 0 34 12t2 38q-5 13 -9.5 30.5t-9.5 34.5q-5 19 -11 39h-368zM336 498v228q0 11 2.5 23t10 21.5t20.5 15.5t34 6h188q31 0 51.5 -14.5t20.5 -52.5v-227h-327z" />
    <glyph glyph-name="hanglvjingshitubiaoyanzhongcuowu" unicode="&#xe619;" horiz-adv-x="1004" 
d="M816 394zM860 654q74 -74 110.5 -166t36.5 -189t-36.5 -189t-110 -165.5t-166 -110.5t-189 -37t-189.5 37t-166.5 110.5t-110.5 165.5t-37 189t37 189t111 165.5t166.5 110t189 36.5t189 -36.5t165.5 -109.5v0zM747 62q21 20 18.5 46.5t-23.5 47.5l-144 144l145 146
q21 20 23.5 46.5t-18 47t-49.5 20.5t-50 -20l-145 -145l-141 142q-20 19 -46.5 21.5t-47.5 -16.5q-20 -21 -20 -50.5t20 -49.5l141 -142l-142 -141q-20 -21 -20 -50t20.5 -49.5t47 -18t46.5 23.5l142 141l144 -144q21 -21 50 -21t49 21v0z" />
    <glyph glyph-name="shanchu" unicode="&#xe61b;" 
d="M344.5 105q11.5 0 19.5 8t8 20v306q0 12 -8 20t-19.5 8t-19.5 -8t-8 -20v-306q0 -12 8 -20t19.5 -8zM511.5 105q11.5 0 20 8t8.5 20v306q0 12 -8.5 20t-20 8t-19.5 -8t-8 -20v-306q0 -12 8 -20t19.5 -8zM679.5 105q11.5 0 19.5 8t8 20v306q0 12 -8 20t-19.5 8t-20 -8
t-8.5 -20v-306q0 -12 8.5 -20t20 -8zM819 746h-116q-9 37 -39 60.5t-68 23.5h-168q-38 0 -68 -23.5t-39 -60.5h-116q-46 0 -79 -32.5t-33 -78.5v-28h28v-28h56v-530q0 -46 32.5 -79t79.5 -33h446q46 0 79 33t33 79v530h55v28h28v28q0 46 -32.5 78.5t-78.5 32.5zM428 774h168
q31 0 48 -28h-264q16 28 48 28zM791 49q0 -23 -16.5 -39.5t-39.5 -16.5h-446q-24 0 -42 16.5t-18 39.5l4 530h558v-530zM149 635q0 23 16.5 39.5t39.5 16.5h614q23 0 39.5 -16.5t16.5 -39.5h-726z" />
    <glyph glyph-name="xitongfanhui" unicode="&#xe616;" 
d="M718 1l-411 411q-8 8 -19 8t-19 -8t-8 -19t8 -19l411 -410q8 -8 19 -8t18.5 7.5t7.5 18.5t-7 19v0zM307 375l411 410q7 8 7 19t-7.5 19t-18.5 8t-19 -8l-411 -411q-8 -8 -8 -19t8 -18.5t19 -7.5t19 8v0z" />
    <glyph glyph-name="xitongxiayibu" unicode="&#xe60e;" 
d="M293 785l438 -438q8 -8 20 -8t20 8t8 20t-8 20l-438 438q-8 9 -20 9t-20.5 -8.5t-8.5 -20.5t9 -20v0zM731 387l-438 -438q-9 -8 -9 -20t8.5 -20.5t20.5 -8.5t20 9l438 438q8 8 8 20t-8 20t-20 8t-20 -8v0z" />
    <glyph glyph-name="email" unicode="&#xe61a;" 
d="M881 688h-1h-2h-1h-2h-3h-722h-3h-2h-2h-2v0q-28 -3 -46.5 -23.5t-18.5 -48.5v-464q0 -28 18.5 -48.5t46.5 -23.5v0h2h2h2h3h722h3h2h1h2h1q27 3 46 23.5t19 48.5v464q0 28 -19 48.5t-46 23.5zM666 384l240 210v-420zM872 649q15 0 25 -10l-386 -338l-386 338
q10 10 25 10h722zM116 594l240 -210l-240 -210v420zM150 119q-15 0 -25 10l261 229l112 -98q5 -5 13 -5t13 5l112 98l261 -229q-10 -10 -25 -10h-722z" />
    <glyph glyph-name="zhongduanguanli" unicode="&#xe641;" 
d="M868 196h-795v521h445v74h-450q-29 0 -48.5 -20.5t-19.5 -49.5v-530q0 -28 20 -48.5t48 -20.5h366v-108h-166q-14 0 -25 -10.5t-11 -25t11 -25t25 -10.5h406q14 0 25 10.5t11 25t-11 25t-25 10.5h-166v108h366q29 0 48.5 20t19.5 49v128h-73v-123h-1zM992 667h-18
q-4 0 -6 4q-2 2 1 7l13 13q9 9 9 22t-9 21l-49 49q-9 10 -21.5 10t-21.5 -10l-13 -13q-3 -2 -5 -2h-2q-4 2 -4 6v19q0 12 -9 22t-21 10h-70q-12 0 -21.5 -9.5t-9.5 -22.5v-19q0 -4 -4 -6h-2q-2 0 -4 2l-13 13q-10 10 -22 10t-21 -10l-49 -49q-10 -9 -10 -21.5t10 -21.5
l13 -13q2 -3 1 -7q-2 -4 -6 -4h-19q-12 0 -21.5 -9t-9.5 -22v-70q0 -12 9.5 -21t21.5 -9h19q4 0 6 -5q1 -2 -1 -7l-13 -13q-10 -9 -10 -22t10 -21l49 -49q9 -9 21 -9t22 9l13 13q2 2 4 2h2q4 -2 4 -6v-18q0 -13 9 -22.5t22 -9.5h70q12 0 21 9.5t9 22.5v18q0 4 4 6h2
q2 0 5 -2l13 -13q9 -9 21.5 -9t21.5 9l49 49q9 9 9 22t-9 21l-13 13q-3 3 -1 7q2 5 6 5h18q13 0 22.5 8.5t9.5 21.5v70q0 13 -9.5 22t-22.5 9zM993 566h-19q-25 0 -34 -22q-10 -24 8 -40l14 -14l-51 -50l-13 14q-11 11 -26 11q-6 0 -14 -3q-22 -11 -22 -34v-19h-70v19
q0 25 -23 34q-6 3 -14 3q-16 0 -26 -11l-13 -14l-49 49l13 14q17 17 9 40q-10 22 -34 22h-20v70h20q25 0 34 22q10 24 -9 40l-14 15l49 49l13 -13q12 -12 26 -12q7 0 14 3q23 11 23 34v21h70v-21q0 -25 22 -34q6 -3 14 -3q16 0 26 12l13 13l49 -49l-13 -14q-17 -17 -8 -40
q10 -22 34 -22h21v-70zM801 693q-38 0 -65 -27t-27 -65t27 -65t65 -27t65 27t27 65t-27 65t-65 27zM801 539q-26 0 -44.5 18t-18.5 44t18.5 44.5t44.5 18.5q25 0 43.5 -18.5t18.5 -44.5q-1 -25 -19 -43.5t-43 -18.5z" />
    <glyph glyph-name="jinggao1" unicode="&#xe617;" horiz-adv-x="1025" 
d="M512 896q-104 0 -199 -40.5t-163.5 -109t-109 -163.5t-40.5 -199t40.5 -199t109 -163.5t163.5 -109t199 -40.5t199 40.5t163.5 109t109 163.5t40.5 199t-40.5 199t-109 163.5t-163.5 109t-199 40.5zM510 65q-27 1 -46.5 20t-19.5 46q-1 30 20 51t50 20q27 -1 46 -20.5
t20 -46.5q1 -29 -20 -50t-50 -20zM581 323q0 -26 -17 -45t-41 -19h-20q-24 0 -41 19t-17 45l-25 316q0 27 17 45.5t41 18.5h68q24 0 41 -18.5t17 -45.5z" />
    <glyph glyph-name="design" unicode="&#xe640;" 
d="M277 438l-217 217q-8 8 -8 18.5t7 17.5l146 146q7 7 17.5 7t18.5 -8l217 -217q7 -7 17.5 -7t18 7.5t7.5 18t-7 18.5l-217 217q-23 22 -54.5 22.5t-54.5 -22.5l-145 -145q-22 -23 -22 -54.5t22 -54.5l217 -217q8 -7 18.5 -7t18 7.5t7.5 18t-7 17.5v0zM132 583l108 109
q8 7 8 17.5t-7.5 18t-18 7.5t-18.5 -7l-108 -109q-8 -7 -8 -17.5t7.5 -18t18 -7.5t18.5 7v0zM240 475l73 72q7 7 7 18t-7.5 18.5t-18 7.5t-17.5 -8l-73 -72q-7 -8 -7 -18.5t7.5 -18t18 -7.5t17.5 8v0zM530 112l217 -217q23 -22 54.5 -22t54.5 22l145 145q23 23 22.5 54.5
t-22.5 54.5l-217 217q-8 7 -18.5 7t-18 -7.5t-7.5 -18t7 -17.5l217 -217q8 -8 8 -18.5t-7 -17.5l-146 -146q-7 -7 -17.5 -7t-18.5 8l-217 217q-7 7 -17.5 7t-18 -7.5t-7.5 -18t7 -18.5v0zM747 -32l109 108q7 8 7 18.5t-7.5 18t-18 7.5t-17.5 -8l-109 -108q-7 -8 -7 -18.5
t7.5 -18t18 -7.5t17.5 8v0zM639 76l72 73q8 7 8 17.5t-7.5 18t-18.5 7.5t-18 -7l-72 -73q-8 -7 -8 -17.5t7.5 -18t18 -7.5t18.5 7v0zM769 822q7 7 17.5 7t17.5 -7l146 -146q7 -7 7 -17.5t-7 -17.5l-645 -645q-2 -2 -4 -2l-251 -50q9 1 16 -6t6 -16l50 251q0 2 2 4l645 645v0
zM733 858l-645 -645q-13 -12 -16 -30l-51 -251q-3 -18 9 -30t30 -9l251 51q18 3 30 16l645 645q22 22 22 53.5t-22 54.5l-145 145q-23 22 -54.5 22t-53.5 -22v0zM678 767l217 -217l18 -18l37 36l-19 18l-217 217l-18 19l-36 -37l18 -18v0zM102 163l127 18l-29 29l-18 -127
l-5 -34l34 5l127 18l-29 29l-18 -127l50 -7l18 127l5 34l-34 -5l-126 -18l29 -29l18 126l5 34l-34 -5l-127 -18l7 -50v0zM732 749l-507 -507l-18 -18l37 -36l18 18l507 507l18 18l-37 36l-18 -18v0zM841 641l-507 -507l-18 -18l36 -37l18 18l507 507l18 18l-36 37l-18 -18v0
z" />
    <glyph glyph-name="leftmenuicondashboard" unicode="&#xe600;" 
d="M952 250q-4 -23 -19 -71q-16 -43 -39 -77q-26 -44 -60 -75q-18 -18 -38 -21q-17 -3 -33 4t-25 21q-11 21 -6 42q2 10 12 19q5 6 23 26q30 36 49 78q19 40 26 78q7 41 5 72q-2 27 -8 53q-7 37 -26 74q-16 33 -39 58q-25 30 -41 42q-15 14 -51 37q-31 18 -67 29
q-37 11 -67 14q-25 3 -37 3q-54 -2 -94 -14q-47 -14 -94 -44q-27 -18 -65 -57q-46 -51 -66 -121q-9 -29 -11 -53q-2 -18 -2 -54q2 -34 11 -68q9 -31 29 -67t39 -57q23 -26 27 -32q16 -22 6.5 -48.5t-38.5 -34.5q-27 -7 -54 12q-7 7 -15 15.5t-12 14t-12.5 17.5t-11.5 16
q-43 63 -64 132q-3 12 -8.5 36.5t-6.5 27.5q-6 30 -4 76q2 23 9 65q7 36 27 85q21 46 47 80q2 3 37 44q22 25 57 50q19 14 53 33q40 22 79 34q31 10 72 16q28 3 41 4h5h41l1.5 -0.5t2.5 -0.5q37 0 93 -14q38 -9 73 -26q54 -25 93 -57q19 -15 36 -32q43 -43 73 -94
q22 -39 34 -77q13 -42 18 -76q2 -29 2 -84q0 -2 -7 -53zM455 481q10 2 15 -7q21 -45 30 -67q3 -8 10 -24.5t11 -24.5q21 -47 32 -71q4 -8 11 -24t11 -24q13 -28 0 -56t-45 -36q-32 -10 -60 13q-23 21 -23 51q-1 41 -1 126v131q0 10 9 13z" />
    <glyph glyph-name="leftmenuiconreports" unicode="&#xe601;" 
d="M792 285h-158q-34 0 -57.5 -29t-23.5 -71v-192l239 292l45 -56l-239 -292l-45 55v-55h-285q-34 0 -58 29t-24 71v694q0 42 24 71t58 29h488q34 0 58 -29t24 -71v-446h-46zM329 334h122q8 0 14 7.5t6 17.5t-6 17.5t-14 7.5h-122q-9 0 -15 -7.5t-6 -17.5t6 -17.5t15 -7.5z
M695 682h-366q-9 0 -15 -7.5t-6 -17.5t6 -17.5t15 -7.5h366q9 0 15 7.5t6 17.5t-6 17.5t-15 7.5zM695 533h-366q-9 0 -15 -7.5t-6 -17.5t6 -17.5t15 -7.5h366q9 0 15 7.5t6 17.5t-6 17.5t-15 7.5z" />
    <glyph glyph-name="leftmenuicongroups" unicode="&#xe602;" 
d="M912 -16h-141q-20 0 -33.5 14t-13.5 33v141q0 20 13.5 33.5t33.5 13.5h47v141h-282v-141h47q19 0 33 -13.5t14 -33.5v-141q0 -19 -14 -33t-33 -14h-142q-19 0 -33 14t-14 33v141q0 20 14 33.5t33 13.5h47v141h-282v-141h47q20 0 33.5 -13.5t13.5 -33.5v-141
q0 -19 -13.5 -33t-33.5 -14h-141q-20 0 -33.5 14t-13.5 33v141q0 20 13.5 33.5t33.5 13.5h47v141v48h329v141h-141q-19 0 -33 13.5t-14 33.5v141q0 19 14 33t33 14h330q19 0 33 -14t14 -33v-141q0 -20 -14 -33.5t-33 -13.5h-141v-141h329v-48v-141h47q20 0 33.5 -13.5
t13.5 -33.5v-141q0 -19 -13.5 -33t-33.5 -14zM488 78h48v47h-48v-47zM159 78h47v47h-47v-47zM865 125h-47v-47h47v47z" />
    <glyph glyph-name="leftmenuiconterminals" unicode="&#xe603;" 
d="M868.5 161q-9.5 0 -16 6.5t-6.5 15.5v535q0 10 6.5 16.5t16 6.5t16 -6.5t6.5 -16.5v-535q0 -9 -6.5 -15.5t-16 -6.5zM668 -62h-446q-37 0 -63 26t-26 63v714q0 37 26 63t63 26h446q37 0 63 -26t26 -63v-714q0 -37 -26 -63t-63 -26zM401 72h89v89h-89v-89zM401 250h89v89
h-89v-89zM222 72h89v89h-89v-89zM222 250h89v89h-89v-89zM668 651q0 19 -13 32t-32 13h-356q-19 0 -32 -13t-13 -32v-133q0 -19 13 -32t32 -13h356q19 0 32 13t13 32v133zM668 339h-89v-89h89v89zM668 161h-89v-89h89v89z" />
    <glyph glyph-name="leftmenuiconpackage" unicode="&#xe604;" 
d="M830 421h-136l-58 -74h187v-112h-622v112h185l-57 74h-135q-26 0 -44 -19.5t-18 -47.5v-362q0 -23 14.5 -39.5t36.5 -16.5h658q22 0 36.5 16.5t14.5 39.5v362q0 28 -18 47.5t-44 19.5v0zM460 804v-234h-119q-13 0 -18.5 -9.5t2.5 -16.5l173 -229q12 -10 24 0l173 229
q8 9 3 17.5t-18 8.5h-116v234q0 11 -8 19.5t-18 8.5h-52q-10 0 -18 -8.5t-8 -19.5v0v0z" />
    <glyph glyph-name="leftmenuiconusermanagement" unicode="&#xe605;" 
d="M744 130q-12 30 -37 57t-58 48t-62.5 35t-61.5 26q38 46 63.5 106.5t25.5 124.5q0 122 -85 192q18 44 55 68t85 24q66 0 110 -44t44 -124q0 -52 -20.5 -103t-53.5 -86v0q-16 -49 15 -59q78 -26 137 -66.5t59 -81.5v-22q0 -83 -216 -95zM459 326v0q-9 -27 -4.5 -46
t10.5 -28t10 -11q84 -28 146.5 -71t62.5 -87v-23q0 -103 -309 -103q-311 0 -311 103v23q0 43 61 86t143 72q5 2 12.5 12.5t12.5 29.5t-4 42q-36 38 -59.5 92.5t-23.5 109.5q0 84 48.5 131t119.5 47t121 -47t50 -131q0 -54 -24.5 -108.5t-61.5 -92.5z" />
    <glyph glyph-name="leftmenuiconadministrater" unicode="&#xe606;" 
d="M710 239q30 -5 55 -11.5t39.5 -12t30 -15.5t20 -14t16 -15t12.5 -12q10 -10 17.5 -43.5t9.5 -56.5t2 -29q0 -23 -10.5 -39.5t-37.5 -26t-50.5 -15.5t-73 -8.5t-80.5 -2.5h-95h-53h-53h-95t-80.5 2.5t-73 8.5t-50.5 15.5t-37.5 26t-10.5 39.5v3.5t0.5 3.5t0.5 3
q1 99 22 119q2 2 12.5 12t15.5 14.5t20 14.5t29.5 15.5t39.5 12t54 11.5q25 3 45 9.5t31 14t18.5 15.5t10 15.5t3.5 13.5l1.5 9l0.5 3l-1 57q-5 3 -14 9t-27.5 27.5t-26.5 44.5q-12 5 -19 8.5t-11 9.5l-5 7.5t-2 10.5t-2 10l-2 47q1 35 17 34q2 0 4 0.5t5.5 5.5t1.5 13
q-3 69 1 112q2 24 17.5 52.5t45.5 33.5q25 5 32 3.5t10 -0.5q5 1 13.5 7.5t24.5 6.5v0l58 12q15 0 35 -19.5t25 -20.5t19 0t31 -2q10 -2 18 -8.5t12.5 -13.5t7.5 -18.5t3.5 -18.5t1 -18t1.5 -13q2 -19 2 -50.5t-3 -48.5q-2 -8 0.5 -12t5.5 -3h3q13 0 17.5 -20.5t3.5 -41.5
l-2 -21q-1 -6 -3 -10t-7 -8.5t-7.5 -6.5t-12.5 -8t-16 -9q-8 -24 -23.5 -45.5t-26.5 -30.5l-11 -10q-1 -41 -1 -50l-0.5 -5t0 -10.5t2.5 -13.5t9 -16t17.5 -15.5t29.5 -14t43 -9.5z" />
    <glyph glyph-name="dashboardbuttongroup" unicode="&#xe607;" 
d="M907 -34h-158q-22 0 -37.5 19t-15.5 45v129q0 27 15.5 45.5t37.5 18.5h52v129h-263v-129h53q22 0 37.5 -18.5t15.5 -45.5v-129q0 -26 -15.5 -45t-37.5 -19h-158q-22 0 -37.5 19t-15.5 45v129q0 27 15.5 45.5t37.5 18.5h53v129h-263v-129h52q22 0 37.5 -18.5t15.5 -45.5
v-129q0 -26 -15.5 -45t-37.5 -19h-158q-21 0 -36.5 19t-15.5 45v129q0 27 15.5 45.5t36.5 18.5h53v129v64h53h263v129h-53q-22 0 -37.5 18.5t-15.5 45.5v129q0 26 15.5 45t37.5 19h158q22 0 37.5 -19t15.5 -45v-129q0 -27 -15.5 -45.5t-37.5 -18.5h-53v-129h263h53v-64v-129
h53q21 0 36.5 -18.5t15.5 -45.5v-129q0 -26 -15.5 -45t-36.5 -19z" />
    <glyph glyph-name="statusiconoffine" unicode="&#xe608;" 
d="M954 512q-7 -9 -17 -9t-17 8q-83 91 -188.5 140t-219.5 49t-219 -49t-189 -140q-7 -8 -17 -8t-17 9t-6.5 20.5t7.5 19.5q90 99 204 152t237 53t237 -53t204 -152q7 -8 7.5 -19.5t-6.5 -20.5zM512 574q92 0 177 -39t154 -112q7 -8 7.5 -20t-6.5 -20q-7 -10 -18 -10
q-9 0 -16 8q-61 66 -138 101t-160 35t-160 -35t-138 -101q-7 -8 -16 -8q-11 0 -18 10q-7 8 -6.5 20t7.5 20q68 73 153.5 112t177.5 39zM368.5 303.5q6.5 6.5 16 6.5t15.5 -7l111 -111l112 111q6 7 15.5 7t16 -6.5t6.5 -16t-7 -16.5l-111 -111l111 -111q7 -6 7 -15.5
t-6.5 -16t-16 -6.5t-15.5 6l-112 112l-111 -112q-6 -6 -15.5 -6t-16 6.5t-6.5 16t6 15.5l112 111l-112 111q-6 7 -6 16.5t6.5 16z" />
    <glyph glyph-name="statusiconpendingactivations" unicode="&#xe609;" 
d="M152 -63q-13 0 -22 10t-9 24.5t9 24.5t22 10h58v81q0 89 41 165q40 76 109 120l4 2l-4 2q-69 44 -109 120q-41 76 -41 165v101h-57q-13 0 -22 10t-9 24.5t9 24.5t22 10h719q13 0 22 -10t9 -24.5t-9 -24.5t-22 -10h-55v-101q0 -89 -41 -165q-40 -76 -108 -120l-4 -2l4 -2
q68 -44 108 -120q41 -76 41 -165v-81h54q13 0 22 -10t9 -24.5t-9 -24.5t-22 -10h-719v0zM466 347q0 -1 -1 -1v0q-5 -4 -11 -6q-80 -22 -130.5 -93t-50.5 -160v-81h481v81q0 90 -50.5 161t-130.5 93h-2v0l-1 1h-1v0q-6 3 -11 7v1v0l-1 1v0l-0.5 0.5l-0.5 0.5v0l-1 1v1v0
q-2 2 -3 5v0q0 1 -1 2v0v1v0q-1 1 -1 2v0v2v0l-1 1v1v1v1v0v1q-1 12 5.5 22.5t18.5 13.5q80 22 130.5 93t50.5 161v101h-481v-101q0 -90 51 -161t131 -93q6 -1 11 -5v0q0 -1 1 -1v0l1 -1q7 -7 10 -18q2 -11 -2 -22v0v-1l-0.5 -0.5t-0.5 -1v-0.5l-1 -1q-1 -1 -1 -2v-1
q-1 0 -1 -1v0q-1 0 -1 -1v0q-1 0 -1 -1v0l-1 -1v0v0q-2 -1 -3 -2v0v0z" />
    <glyph glyph-name="statusiconpendingdownload" unicode="&#xe60a;" 
d="M882 -60h-745q-30 0 -51.5 22t-21.5 52v551q0 31 21.5 52.5t51.5 21.5h124q13 0 22.5 -9.5t9.5 -22.5t-9.5 -22.5t-22.5 -9.5h-83q-21 0 -36 -15t-15 -36v-468q0 -22 15 -37t36 -15h663q21 0 35.5 15t14.5 37v468q0 21 -14.5 36t-35.5 15h-83q-14 0 -23 9.5t-9 22.5
t9 22.5t23 9.5h124q30 0 51.5 -21.5t21.5 -52.5v-551q0 -30 -21.5 -52t-51.5 -22zM721 333l-187 -189v-1q-10 -11 -24 -11h-1q-14 0 -24 11v1l-187 189q-9 10 -9 23t9 22v1q10 9 23 9t22 -9l135 -137v557q0 13 9 22.5t22 9.5h1q13 0 22 -9.5t9 -22.5v-557l135 137q9 9 22 9
t22 -9l1 -1q9 -9 9 -22t-9 -23z" />
    <glyph glyph-name="statusiconprivacyshield" unicode="&#xe60b;" 
d="M786 -63h-548q-25 0 -43 17t-18 41v389q0 24 18 41t43 17h8v143v1q3 102 81 173.5t186 71.5q109 0 186.5 -71.5t80.5 -174.5v-5v-28h-55v38v0q-5 80 -66 134.5t-146 54.5t-146 -54.5t-66 -134.5v0v-7v-141h43v-2h448v1q23 -2 39 -18.5t16 -38.5v-389q0 -24 -18 -41
t-43 -17zM792 352q0 16 -12 27t-28 11h-479q-17 0 -29 -11t-12 -27v-324q0 -16 12 -27.5t29 -11.5h479q16 0 28 11.5t12 27.5v324zM512 98q-24 0 -40.5 16t-16.5 38q0 30 26 46l3 2v56q0 11 8.5 18.5t19.5 7.5t19.5 -7.5t8.5 -18.5v-56l3 -2q26 -16 26 -46q0 -22 -16.5 -38
t-40.5 -16z" />
    <glyph glyph-name="statusiconstylus" unicode="&#xe60c;" 
d="M90 -63q-11 0 -18.5 8t-7.5 19.5t7.5 19.5t18.5 8h303l4 188q0 13 6 23l336 606q13 22 38 22q12 0 22 -6l139 -83q16 -9 20.5 -27.5t-4.5 -34.5l-336 -605q-4 -7 -10 -12l1 -1l-174 -112q-8 -13 -23 -13h-322zM447 23l82 53l-80 47zM576 111l266 476l-123 74l-265 -477z
M868 635l36 64l-123 74l-36 -64z" />
    <glyph glyph-name="statusicontampers" unicode="&#xe60d;" 
d="M512 831q-12 -19 -32 -50.5t-71.5 -118.5t-90.5 -161.5t-71.5 -155.5t-32.5 -125q0 -102 71.5 -180.5t173.5 -97.5l11 55q-83 15 -144.5 74.5t-61.5 134.5q0 33 26.5 102t59.5 134t75.5 142.5t59.5 106t27 45.5v0q10 -17 27 -45.5t59.5 -106t75.5 -142.5t59.5 -134
t26.5 -102q0 -71 -57 -129t-135 -76l-9 -59q104 17 177.5 96t73.5 182q0 44 -31 123t-74.5 160.5t-87.5 156.5t-74.5 123l-30.5 48v0zM544 222q-18 -8 -32 -9t-21 2t-11 8t-5 8t-1 4l67 222q-3 16 -9.5 25t-13.5 9.5t-13.5 -1t-10.5 -3.5l-4 -3q-70 -219 -92 -289
q-9 -34 -0.5 -49t23.5 -17l15 -2l121 41l-71 -231h26l13 27q96 172 120 258q11 35 -16 33q-14 -1 -75 -29q-6 -3 -10 -4v0z" />
    <glyph glyph-name="i" unicode="&#xe6a8;" horiz-adv-x="1025" 
d="M580 174q-21 0 -29.5 7t-8.5 26q0 7 2.5 21.5t5.5 26.5l28 94q4 13 5.5 29t1.5 22q0 30 -21.5 48.5t-61.5 18.5q-22 0 -47 -8q-25 -7 -52 -18l-7 -29q7 3 19 6q11 3 22 3q22 0 29.5 -7t7.5 -25q0 -11 -2 -23q-3 -12 -7 -25l-27 -95q-4 -15 -5.5 -27t-1.5 -23
q0 -30 22 -49t62 -19q26 0 46 7t53 19l7 30q-5 -3 -18 -6q-13 -4 -23 -4zM609 622.5q-19 17.5 -46 17.5t-46.5 -17.5t-19.5 -42t19.5 -42t46.5 -17.5t46 17.5t19 42t-19 42zM512 896q-104 0 -199 -40.5t-163.5 -109t-109 -163.5t-40.5 -199t40.5 -199t109 -163.5t163.5 -109
t199 -40.5t199 40.5t163.5 109t109 163.5t40.5 199t-40.5 199t-109 163.5t-163.5 109t-199 40.5zM512 -81q-95 0 -181 36.5t-148.5 99t-99 148.5t-36.5 181t36.5 181t99 148.5t148.5 99t181 36.5t181 -36.5t148.5 -99t99 -148.5t36.5 -181t-36.5 -181t-99 -148.5t-148.5 -99
t-181 -36.5z" />
    <glyph glyph-name="acontentset" unicode="&#xe60f;" 
d="M960 423q0 12 -9 21t-21 9h-46q-15 0 -28 9.5t-17 23.5l-24 58q-6 12 -4 28t12 26l33 33q9 9 9 21.5t-9 20.5l-55 56q-9 8 -21.5 8t-21.5 -8l-32 -33q-10 -10 -26.5 -12.5t-28.5 4.5l-58 24q-13 4 -23 17t-10 27v46q0 13 -8.5 21.5t-21.5 8.5h-78q-12 0 -21 -8.5
t-9 -21.5v-46q0 -14 -9.5 -27t-23.5 -17l-57 -24q-13 -7 -29 -4.5t-26 12.5l-33 33q-8 8 -20.5 8t-21.5 -8l-55 -56q-9 -8 -9 -20.5t9 -21.5l32 -33q10 -10 12.5 -26t-4.5 -28l-23 -58q-5 -14 -18 -23.5t-27 -9.5h-46q-12 0 -21 -9t-9 -21v-78q0 -12 9 -21t21 -9h46
q14 0 27 -9.5t18 -23.5l23 -58q7 -12 4.5 -28t-12.5 -26l-32 -33q-9 -9 -9 -21.5t9 -20.5l55 -55q9 -9 21.5 -9t20.5 9l33 32q10 10 26 12.5t29 -4.5l57 -24q14 -4 23.5 -17t9.5 -27v-46q0 -13 9 -21.5t21 -8.5h78q13 0 21.5 8.5t8.5 21.5v46q0 14 10 27t23 17l58 24
q13 7 29 4.5t26 -12.5l32 -32q9 -9 21.5 -9t21.5 8l55 56q9 8 9 20.5t-9 21.5l-33 33q-10 10 -12 26t4 28l24 58q4 14 17.5 23.5t27.5 9.5h46q12 0 21 9t9 21v78v0zM684 384q0 -71 -50.5 -121.5t-122 -50.5t-122 50.5t-50.5 122t50.5 121.5t122 50t122 -50t50.5 -122v0z" />
    <glyph glyph-name="adashboardbuttongroup" unicode="&#xe610;" 
d="M903 160q23 0 39.5 -16t16.5 -39v-56q0 -24 -16.5 -40t-39.5 -16h-447q-23 0 -39.5 16t-16.5 40v56v223v56v224h-279q-23 0 -39.5 16t-16.5 39v56q0 24 16.5 40t39.5 16h615q23 0 39 -16t16 -40v-56q0 -23 -16 -39t-39 -16h-280v-168h447q23 0 39.5 -16.5t16.5 -39.5v-56
q0 -23 -16.5 -39.5t-39.5 -16.5h-447v-112h447z" />
    <glyph glyph-name="adashboardbuttonterminal" unicode="&#xe611;" 
d="M903 328h-782q-24 0 -40 16.5t-16 39.5t16 39.5t40 16.5h782q24 0 40 -16.5t16 -39.5t-16 -39.5t-40 -16.5zM903 664h-782q-24 0 -40 16t-16 39.5t16 39.5t40 16h782q24 0 40 -16t16 -39.5t-16 -39.5t-40 -16zM121 104h782q24 0 40 -16t16 -39.5t-16 -39.5t-40 -16h-782
q-24 0 -40 16t-16 39.5t16 39.5t40 16z" />
    <glyph glyph-name="aleftmenubuttonleave" unicode="&#xe612;" 
d="M829 65q-63 -63 -145 -96.5t-173 -33.5t-173 33.5t-145 96.5t-96.5 145t-33.5 173q0 94 40 183q39 87 107 150l1 1v0q10 9 27 9q25 0 35 -13q9 -11 9 -28.5t-13 -30.5q-58 -49 -91 -120.5t-33 -150.5q0 -101 48.5 -185t132.5 -132.5t185 -48.5t185 48.5t132.5 132.5
t48.5 185q0 77 -31 149t-86 121q-14 14 -16 31q-1 15 10 26q16 16 35 16q13 0 22 -9v0l1 -1q68 -63 107 -150q40 -89 40 -183q0 -91 -33.5 -173t-96.5 -145zM511 342q-19 0 -30 11t-11 30v407q0 19 11 30t30 11t30 -11t11 -30v-407q0 -19 -11 -30t-30 -11z" />
    <glyph glyph-name="aleftmenubuttonwarning" unicode="&#xe613;" 
d="M652 81q-2 -38 -21 -71t-51 -52q-33 -19 -71 -19q-58 -1 -99 43q-37 41 -38 99l-247 -1l115 234l5 226q1 79 41 147q38 66 102 104t138 38q115 1 195 -85q78 -85 76 -203l-5 -227l107 -233h-247zM805 148l-76 164l4 229q2 91 -58 156q-61 66 -150 66q-57 0 -107 -30
t-79.5 -82t-30.5 -111l-4 -229l-79 -160zM435 81q1 -31 21 -52q22 -24 54 -24q21 0 39 11q37 22 40 65h-154z" />
    <glyph glyph-name="alogobuttontms" unicode="&#xe614;" 
d="M949 484q-70 4 -117 4q-26 1 -38 -4.5t-15 -25.5l-3 -16q-4 -19 4 -24t30 -5h51q47 0 62.5 -25.5t9.5 -57.5l-3 -28q-2 -26 -13.5 -43t-31.5 -23.5t-35.5 -8.5t-37.5 -2q-85 0 -131 13l8 46q45 -4 122 -4q45 0 50 27l3 16q3 16 -2.5 23t-24.5 7h-50q-31 0 -50.5 9.5
t-25 23t-8 27.5t1.5 24l5 32q8 44 36.5 59t76.5 15q85 1 135 -12zM600 228l18 209l-98 -209h-79l-22 209l-59 -209h-69l89 313h95l21 -214l99 214h97l-23 -313h-69zM232 486l-47 -258h-69l47 258h-97l10 55h268l-11 -55h-101z" />
    <glyph glyph-name="aaleftmenuiconusermanagement" unicode="&#xe615;" 
d="M599 -64h-174q-54 0 -80 0.5t-67.5 2.5t-62 7.5t-43.5 15t-32 24.5t-9 36v18q0 123 86 210t208 87h174q122 0 208 -87t86 -210v-18q0 -16 -5.5 -28.5t-19 -21.5t-26.5 -15t-38 -10t-42.5 -6.5t-51 -3.5t-53 -1h-58.5v0v0v0zM503 360q-96 0 -164 69t-68 167t68 167t164 69
t164.5 -69t68.5 -167t-68.5 -167t-164.5 -69v0v0v0z" />
    <glyph glyph-name="acontenticonadd" unicode="&#xe664;" 
d="M489 456h-6v-6q0 -1 -1.5 -1t-1.5 1v6h-6q-1 0 -1 1t1 1h6v6q0 1 1.5 1t1.5 -1v-6h6q1 0 1 -1t-1 -1zM904 327h-336v-336q0 -23 -16.5 -39.5t-39.5 -16.5t-39.5 16.5t-16.5 39.5v336h-336q-23 0 -39.5 16.5t-16.5 40t16.5 39.5t39.5 16h336v336q0 24 16.5 40.5t39.5 16.5
t39.5 -16.5t16.5 -40.5v-336h336q24 0 40 -16t16 -39.5t-16 -40t-40 -16.5z" />
    <glyph glyph-name="icon-search1" unicode="&#xe66a;" 
d="M940 54l-159 159q71 101 71 225q0 79 -30 151t-85.5 127.5t-127.5 85.5t-151 30t-151 -30t-127.5 -85.5t-85.5 -127.5t-30 -151t30 -151t85.5 -127.5t127.5 -85.5t151 -30q124 0 225 71l159 -159q20 -20 48.5 -20t49 20.5t20.5 49t-20 48.5v0zM203 438.5
q0 105.5 74.5 180t180 74.5t180.5 -74.5t75 -180t-75 -180.5t-180.5 -75t-180 75t-74.5 180.5z" />
    <glyph glyph-name="icon-search2" unicode="&#xe66b;" 
d="M428.5 106q-73.5 0 -140.5 28q-65 28 -115 78t-78 115q-28 67 -28 141t28 141q28 65 78 115t115 78q67 28 140.5 28t140.5 -28q65 -28 115 -78t77 -115q28 -67 28 -141t-28 -141q-27 -65 -77 -115t-115 -78q-67 -28 -140.5 -28zM428.5 778q-127.5 0 -218 -91t-90.5 -219
t90.5 -219t218 -91t218 91t90.5 219t-90.5 219t-218 91zM875 -62q-34 0 -58 24l-156 151l37 38l156 -152q9 -9 21 -9t20.5 9t8.5 21t-8 21h-1l-151 157l38 36l151 -156q24 -24 24 -58t-24 -58t-58 -24zM272 311q-65 65 -65 157t65 157l37 -37q-50 -50 -50 -120t50 -120z" />
    <glyph glyph-name="chenggong2" unicode="&#xe618;" 
d="M512 896q-138 0 -256 -69t-187 -187t-69 -256t69 -256t187 -187t256 -69t256 69t187 187t69 256t-69 256t-187 187t-256 69zM845 531l-429 -429l-237 237q-19 19 -19 45t19 45t45 19t45 -19l147 -147l339 339q19 19 45 19t45 -19t19 -45t-19 -45z" />
    <glyph glyph-name="button-event" unicode="&#xe66d;" 
d="M512 205h-223v-89h223v89zM825 697h-90v67q0 28 -19.5 47.5t-47 19.5t-47.5 -19.5t-20 -47.5v-67h-178v67q0 28 -20 47.5t-47.5 19.5t-47 -19.5t-19.5 -47.5v-67h-90q-37 0 -63 -26t-26 -64v-581q0 -37 26 -63t63 -26h626q37 0 63 26t26 63v581q0 38 -26 64t-63 26z
M825 26h-626v447h626v-447zM735 384h-446v-89h446v89z" />
    <glyph glyph-name="leftmenu-down" unicode="&#xe66e;" 
d="M512 97l-449 574h898z" />
    <glyph glyph-name="leftmenu-circle" unicode="&#xe66f;" 
d="M510 832q-91 0 -173.5 -35.5t-142 -95.5t-95 -142.5t-35.5 -173t35.5 -173.5t95 -142.5t142 -95t173.5 -35.5t173.5 35.5t142.5 95t95 142.5t35 173.5t-35 173t-95 142.5t-142.5 95.5t-173.5 35.5zM510 118q-111 0 -189.5 78t-78.5 189t78.5 189.5t189.5 78.5
t189.5 -78.5t78.5 -189.5t-78.5 -189t-189.5 -78z" />
    <glyph glyph-name="button-alert" unicode="&#xe670;" 
d="M510 -61q-93 0 -174 35.5t-141.5 95.5t-95.5 142t-35 174.5t35 174t95.5 141.5t141.5 95.5t174 35.5t174.5 -35.5t142 -95.5t96 -141.5t35.5 -174t-35.5 -174.5t-96 -142t-142 -95.5t-174.5 -35.5zM447 380q0 -28 18 -47.5t45 -19.5t45.5 19.5t18.5 47.5v243
q0 28 -18.5 45t-45.5 17t-45 -17t-18 -46v-242v0zM510.5 253q-33.5 0 -57.5 -23.5t-24 -57t24 -57t57.5 -23.5t57.5 23.5t24 57t-24 57t-57.5 23.5z" />
  </font>
</defs>
</svg>
